<?xml version="1.0" encoding="UTF-8" standalone="no"?>
<!-- Created with Inkscape (http://www.inkscape.org/) -->

<svg
   xmlns:dc="http://purl.org/dc/elements/1.1/"
   xmlns:cc="http://creativecommons.org/ns#"
   xmlns:rdf="http://www.w3.org/1999/02/22-rdf-syntax-ns#"
   xmlns:svg="http://www.w3.org/2000/svg"
   xmlns="http://www.w3.org/2000/svg"
   xmlns:sodipodi="http://sodipodi.sourceforge.net/DTD/sodipodi-0.dtd"
   xmlns:inkscape="http://www.inkscape.org/namespaces/inkscape"
   width="266.57663mm"
   height="264.95279mm"
   viewBox="0 0 266.57663 264.95279"
   version="1.1"
   id="svg8"
   inkscape:export-filename="/home/pacman/Desktop/logo.png"
   inkscape:export-xdpi="96"
   inkscape:export-ydpi="96"
   inkscape:version="0.92.4 5da689c313, 2019-01-14"
   sodipodi:docname="logo.svg">
  <defs
     id="defs2" />
  <sodipodi:namedview
     id="base"
     pagecolor="#ffffff"
     bordercolor="#666666"
     borderopacity="1.0"
     inkscape:pageopacity="0.0"
     inkscape:pageshadow="2"
     inkscape:zoom="0.49497475"
     inkscape:cx="970.23995"
     inkscape:cy="454.20426"
     inkscape:document-units="px"
     inkscape:current-layer="layer1"
     showgrid="false"
     fit-margin-top="0"
     fit-margin-left="0"
     fit-margin-right="0"
     fit-margin-bottom="0"
     inkscape:window-width="1920"
     inkscape:window-height="1012"
     inkscape:window-x="0"
     inkscape:window-y="0"
     inkscape:window-maximized="1"
     inkscape:pagecheckerboard="true" />
  <metadata
     id="metadata5">
    <rdf:RDF>
      <cc:Work
         rdf:about="">
        <dc:format>image/svg+xml</dc:format>
        <dc:type
           rdf:resource="http://purl.org/dc/dcmitype/StillImage" />
        <dc:title></dc:title>
      </cc:Work>
    </rdf:RDF>
  </metadata>
  <g
     inkscape:label="Layer 1"
     inkscape:groupmode="layer"
     id="layer1"
     transform="translate(359.65976,-22.156311)">
    <path
       style="fill:#ff7300;fill-opacity:1;stroke-width:0.26458335"
       d="m -235.11932,286.44182 c -34.81548,-2.74812 -66.42883,-18.52257 -89.55506,-44.68625 -1.95415,-2.21081 -6.2148,-7.49086 -7.39054,-9.15881 -5.00971,-7.10692 -7.65149,-11.42352 -10.9922,-17.96098 -7.83959,-15.34137 -12.68857,-32.40966 -14.02382,-49.36351 -0.5175,-6.57083 -0.62299,-12.77079 -0.29922,-17.58558 1.29504,-19.2586 5.35525,-34.91003 13.24443,-51.05508 5.15619,-10.552044 11.30021,-19.905295 18.76696,-28.569603 3.20221,-3.715793 10.44636,-10.938177 14.04944,-14.007227 19.63795,-16.727297 43.58258,-27.390042 68.93428,-30.697019 4.41872,-0.576395 12.90685,-1.198446 16.39385,-1.20142 8.23526,-0.007 20.00697,1.211947 27.78125,2.876768 16.54296,3.542589 29.76109,8.98409 45.05769,18.548874 4.34061,2.714132 11.51822,8.255274 16.31236,12.593207 8.86984,8.025789 15.80597,16.094372 22.15486,25.772045 2.52849,3.854204 4.04926,6.386084 5.64172,9.392708 0.69367,1.309688 1.35001,2.500313 1.45852,2.645834 0.59118,0.792776 4.90619,10.618273 6.15837,14.022913 4.442988,12.08034 6.836448,22.74446 8.015138,35.7117 0.53605,5.89746 0.39423,18.83464 -0.27127,24.7456 -2.87769,25.55932 -12.564248,49.07121 -28.286648,68.65937 -25.43441,31.68813 -63.3196,49.78819 -103.75741,49.57124 -3.63802,-0.0195 -7.86473,-0.13417 -9.3927,-0.25478 z m 20.54223,-48.39536 c 7.61547,-1.55916 16.01698,-4.80036 21.12964,-8.15154 11.43641,-7.49621 19.96384,-21.67808 22.27031,-37.03749 0.50093,-3.33583 0.55904,-10.44477 0.12044,-14.73415 -0.4718,-4.61413 -0.378,-10.75523 0.22134,-14.49031 1.48279,-9.24074 4.10665,-15.3109 9.31228,-21.54342 2.6518,-3.17492 2.40316,-3.99596 -0.94865,-3.13251 -9.9938,2.57446 -18.67609,10.08044 -25.51097,22.05464 -1.02386,1.79373 -1.99205,3.41854 -2.15153,3.61071 -0.37498,0.45182 -1.31957,0.20568 -1.36017,-0.35445 -0.0393,-0.54253 -0.0951,-0.0432 0.53687,-4.80862 0.90998,-6.86182 1.15408,-11.12485 1.00688,-17.58396 -0.3041,-13.34342 -2.77087,-22.07722 -9.61416,-34.03974 -2.35442,-4.11568 -3.77133,-6.1656 -6.73842,-9.748801 -8.92175,-10.774318 -21.78318,-19.123015 -37.01818,-24.029478 -3.59273,-1.157047 -8.64233,-2.449126 -12.11974,-3.101171 -4.28537,-0.803545 -4.26921,-0.03369 0.0929,4.425871 8.37469,8.561734 14.43293,19.064976 16.5002,28.606599 2.6002,12.00137 -0.15133,24.47957 -7.77174,35.24499 -0.82247,1.16191 -1.80332,2.38962 -2.17966,2.72824 -0.66185,0.59551 -0.6996,0.59985 -1.15234,0.13229 -0.42275,-0.43657 -0.44243,-0.7396 -0.20326,-3.12921 0.34122,-3.40909 0.11167,-10.70536 -0.43284,-13.75834 -1.89212,-10.60883 -5.34477,-16.58469 -11.70827,-20.26474 -1.12535,-0.65079 -1.47925,-0.74487 -1.91823,-0.50994 -0.75151,0.4022 -0.68246,0.82454 0.46715,2.85728 3.36525,5.95036 3.98118,11.28848 2.00632,17.38824 -0.9879,3.05132 -3.77631,8.64514 -5.56897,11.17185 -1.69396,2.38761 -3.57177,4.81894 -9.32223,12.07012 -4.09814,5.16764 -5.47888,7.16883 -7.51316,10.88928 -3.26212,5.96601 -5.70576,13.63622 -6.55046,20.56092 -0.53453,4.38194 0.32765,11.25633 2.10018,16.74533 2.47547,7.6658 5.84641,13.83397 11.27851,20.6375 2.55061,3.19456 6.36358,7.01146 7.00425,7.01146 0.35983,0 1.12777,-0.9176 2.57348,-3.07502 5.23194,-7.80759 10.57435,-14.32072 17.13156,-20.88573 4.27113,-4.2762 7.15791,-6.78589 14.05414,-12.21824 14.88989,-11.72921 18.51301,-25.63087 11.18887,-42.9309 -1.40148,-3.31036 -1.50972,-3.82756 -0.85378,-4.07927 0.61663,-0.23662 1.25541,0.2511 4.36777,3.33486 3.55793,3.52524 4.77978,4.87844 6.88307,7.62304 7.33075,9.56597 11.71987,19.57799 13.62875,31.08855 0.74186,4.47343 0.66618,15.19983 -0.13875,19.66434 -0.96231,5.33748 -1.96154,8.86593 -4.28424,15.12837 -0.77738,2.09596 -4.31113,8.78666 -6.02769,11.41266 -1.78598,2.73218 -3.85116,5.53905 -5.38268,7.31581 -0.80283,0.9314 -0.94119,1.61114 -0.43164,2.12069 0.17463,0.17463 0.34011,0.3175 0.36775,0.3175 0.0276,0 1.22422,-0.24035 2.65907,-0.53411 z"
       id="path26"
       inkscape:connector-curvature="0" />
    <path
       style="fill:#ff7300;fill-opacity:0;stroke-width:0.26458335"
       d="m -236.00834,286.91031 c -4.13919,-0.33612 -8.3969,-0.77748 -10.18646,-1.05595 -11.92057,-1.85493 -21.0461,-4.35036 -31.48541,-8.60985 -4.66778,-1.90457 -6.76724,-2.92394 -6.54006,-3.17547 0.10453,-0.11574 0.0395,-0.12373 -0.14445,-0.0178 -0.34305,0.19758 -5.25566,-2.27879 -9.21863,-4.64697 -1.17964,-0.70493 -2.27105,-1.28169 -2.42535,-1.28169 -0.1543,0 -0.32023,-0.0956 -0.36874,-0.21239 -0.0485,-0.11681 -0.82553,-0.65709 -1.72673,-1.2006 -4.20379,-2.53534 -12.31462,-8.59661 -16.48542,-12.31965 -2.45143,-2.18827 -9.57369,-9.23061 -11.26459,-11.13819 -1.28423,-1.44882 -4.32856,-5.01485 -4.87587,-5.71146 -2.70708,-3.44548 -7.93662,-10.79816 -7.93662,-11.15879 0,-0.08 -0.27767,-0.51386 -0.61704,-0.96415 -0.63411,-0.84137 -4.69028,-7.8659 -5.71065,-9.88978 -0.31432,-0.62346 -0.48906,-1.26693 -0.38831,-1.42994 0.10482,-0.16962 0.0646,-0.22311 -0.094,-0.12508 -0.15696,0.097 -0.53585,-0.37303 -0.87349,-1.0836 -9.65234,-20.31374 -14.09915,-41.53997 -13.19491,-62.98402 0.69957,-16.59007 3.92205,-31.12399 10.30684,-46.48548 1.33798,-3.21912 4.49927,-9.783888 5.66979,-11.773957 5.23548,-8.901153 6.76116,-11.257542 10.44429,-16.131091 4.26066,-5.637739 7.74994,-9.608053 12.97833,-14.767518 2.14095,-2.11273 7.49234,-6.944789 9.15236,-8.264168 2.15371,-1.711751 4.30185,-3.379425 4.77363,-3.705918 0.31049,-0.214875 1.59508,-1.137175 2.85462,-2.049555 5.72711,-4.148549 14.78555,-9.290213 22.42734,-12.729983 8.665,-3.900346 20.47011,-7.473302 30.64205,-9.274175 19.94808,-3.531671 41.42395,-2.264044 60.72188,3.584151 21.33263,6.464805 39.95482,17.582074 55.30366,33.015752 5.93471,5.967513 8.35628,8.725993 12.40631,14.132359 2.00575,2.677475 7.56399,10.828092 7.56399,11.091858 0,0.07385 0.41219,0.812821 0.91599,1.642155 5.30371,8.730856 10.27147,20.48157 13.37377,31.63426 4.948729,17.79053 6.042728,36.99569 3.165101,55.5625 -3.198071,20.63426 -11.213731,40.02778 -23.685631,57.3062 -1.53155,2.12179 -5.74109,7.50165 -6.1921,7.91359 -0.0797,0.0728 -0.68062,0.7288 -1.33546,1.45786 -4.28886,4.77494 -5.40175,5.91368 -5.63721,5.76815 -0.14596,-0.0902 -0.19209,-0.0454 -0.1025,0.0995 0.36332,0.58787 -10.08884,9.74604 -15.95613,13.98075 -17.83199,12.87022 -37.4002,20.77689 -59.26667,23.94711 -7.16053,1.03814 -20.66766,1.56414 -26.9875,1.05095 z m 21.43125,-48.86385 c 7.27223,-1.75941 14.74388,-4.81112 19.31459,-7.88882 4.14352,-2.79004 8.52411,-7.06101 11.80761,-11.5121 3.55811,-4.82337 7.60285,-13.56826 8.8375,-19.10701 0.19546,-0.87684 0.4486,-1.44329 0.60249,-1.34818 0.14598,0.0902 0.18754,0.038 0.0924,-0.11595 -0.0952,-0.15398 0.0722,-1.69042 0.372,-3.41431 0.78921,-4.53863 0.9142,-9.11632 0.41101,-15.05303 -0.74487,-8.78798 -0.43377,-14.20589 1.1843,-20.62507 1.27901,-5.0741 2.92909,-8.88151 5.57648,-12.86723 1.02684,-1.54595 3.77084,-4.94957 4.2611,-5.28544 0.12925,-0.0885 0.19571,-0.50527 0.14768,-0.92604 -0.0822,-0.72038 -0.15683,-0.76405 -1.27796,-0.7481 -2.32808,0.0331 -7.93153,2.3196 -11.58795,4.72847 -2.56656,1.69085 -6.0608,4.80515 -8.53481,7.60678 -2.09893,2.37688 -5.41428,7.13996 -6.87198,9.87281 -1.70267,3.19209 -2.15146,3.83646 -2.67204,3.83646 -0.28178,0 -0.57898,-0.17368 -0.66044,-0.38597 -0.0815,-0.21228 0.098,-2.14705 0.39886,-4.29948 0.30082,-2.15243 0.62053,-4.86601 0.71045,-6.03017 0.0899,-1.16417 0.21206,-2.41433 0.27143,-2.77813 0.22657,-1.3883 0.10273,-12.89356 -0.16906,-15.7065 -0.60131,-6.22337 -2.40106,-13.31554 -4.74271,-18.68933 -3.17539,-7.28714 -7.34378,-14.20527 -11.3725,-18.874548 -8.08852,-9.374571 -17.22917,-16.005808 -28.93723,-20.992989 -3.54668,-1.510745 -9.50544,-3.62222 -11.42473,-4.048327 -0.58208,-0.12923 -1.9513,-0.483348 -3.04271,-0.786931 -2.54394,-0.707615 -6.98021,-1.599293 -7.95678,-1.599293 -0.74224,0 -1.34425,0.634003 -1.13055,1.190625 0.0559,0.145521 1.56429,1.764081 3.35204,3.596796 6.73182,6.901149 12.38532,15.778915 15.13177,23.761608 1.81818,5.284659 2.57068,11.165759 2.18964,17.112979 -0.51331,8.01169 -3.95396,16.74449 -9.5561,24.25461 -1.00022,1.34089 -1.48759,1.78765 -1.88762,1.73038 -0.52782,-0.0756 -0.53734,-0.20641 -0.44814,-6.16262 0.10942,-7.30601 -0.27363,-10.90762 -1.7306,-16.27188 -1.84264,-6.78424 -4.76345,-11.14276 -9.59307,-14.31505 -2.04539,-1.34348 -2.59671,-1.51549 -3.13434,-0.97786 -0.52108,0.52107 -0.3759,1.07718 0.83668,3.20498 1.8797,3.29846 2.6119,5.84776 2.75391,9.58833 0.10133,2.66896 0.0274,3.56269 -0.45316,5.48105 -1.32946,5.30677 -4.70537,11.70424 -8.86007,16.79018 -1.7056,2.08788 -2.21059,2.71655 -2.72753,3.39553 -0.32563,0.4277 -1.42763,1.8492 -2.44889,3.15889 -6.55119,8.40137 -7.9425,10.50472 -10.44989,15.79788 -1.58958,3.35563 -3.39073,8.84519 -4.27904,13.0417 -0.63763,3.01224 -0.72596,3.99842 -0.71094,7.9375 0.0144,3.77772 0.12778,5.03088 0.7081,7.82649 1.02735,4.94911 2.95608,10.42265 5.10353,14.48331 3.16823,5.99089 6.89473,11.21469 11.26721,15.79437 3.28359,3.4392 3.48233,3.47301 5.23843,0.89122 7.03194,-10.3383 11.43133,-15.71473 18.78004,-22.9508 3.05175,-3.00498 6.85719,-6.34879 9.53037,-8.37426 5.6422,-4.27508 9.72773,-8.13532 12.46324,-11.77594 7.10702,-9.45855 7.9386,-21.64904 2.34017,-34.30563 -1.32024,-2.98473 -1.41947,-3.7898 -0.46711,-3.7898 1.16126,0 10.32022,9.78403 12.79563,13.66889 0.54134,0.84956 1.07143,1.60418 1.17798,1.67694 0.1894,0.12933 2.62539,4.24793 3.91228,6.61458 1.80934,3.3275 4.00437,9.14927 5.18742,13.75834 1.46592,5.71109 1.86312,9.07751 1.85748,15.74271 -0.005,5.80677 -0.1651,7.52018 -1.19105,12.74033 -2.05632,10.46269 -7.1368,21.22559 -14.1141,29.90045 -1.71592,2.1334 -1.89976,2.53224 -1.56698,3.39947 0.20635,0.53772 1.22839,0.42807 5.38629,-0.57787 z"
       id="path826"
       inkscape:connector-curvature="0" />
  </g>
</svg>
